<svg xmlns="http://www.w3.org/2000/svg" xmlns:xlink="http://www.w3.org/1999/xlink" viewBox="0 0 427.759 298.996"><defs><style>.cls-1,.cls-10,.cls-4{fill:none;}.cls-2{clip-path:url(#clip-path);}.cls-17,.cls-3{fill:#fff;}.cls-3,.cls-5,.cls-7,.cls-8{fill-rule:evenodd;}.cls-4{stroke:#88bf43;stroke-width:2px;}.cls-5,.cls-6{fill:#8dc63f;}.cls-7{fill:#88bf43;}.cls-8{fill:#378840;}.cls-9{font-size:32px;}.cls-11,.cls-12,.cls-13,.cls-14,.cls-15,.cls-9{fill:#221e1f;font-family:NanumBarunGothic;}.cls-10,.cls-17{stroke:#221e1f;stroke-linejoin:round;}.cls-10{stroke-linecap:round;}.cls-11{font-size:32px;}.cls-12{font-size:32px;}.cls-13{font-size:29px;}.cls-14{font-size:29px;}.cls-15{font-size:29px;}.cls-16{fill:#388840;}.cls-17{font-size:20px;font-family:Pretendard-ExtraBold-KSCpc-EUC-H, Pretendard;}</style><clipPath id="clip-path"><rect class="cls-1" x="19.675" y="21.5" width="390.647" height="275.598"/></clipPath></defs><g id="레이어_2" data-name="레이어 2"><g id="레이어_1-2" data-name="레이어 1"><g class="cls-2"><path class="cls-3" d="M402.5,147.567c0,67.5-83.947,122.222-187.5,122.222S27.5,215.068,27.5,147.567,111.446,25.347,215,25.347s187.5,54.719,187.5,122.22"/><ellipse class="cls-4" cx="214.999" cy="147.568" rx="187.5" ry="122.221"/><path class="cls-5" d="M280.489,121.52a8.371,8.371,0,1,0-8.565-8.371,8.468,8.468,0,0,0,8.565,8.371"/><path class="cls-5" d="M307.706,138.184c1.81,2.683,3.544,5.244,4.959,7.364a22.313,22.313,0,1,1-31.913,20.128c0-.464.043-.927.077-1.372h-1.178c-.229.365-1.91,3.085-3.988,6.471a27.9,27.9,0,1,0,32.043-32.591"/><path class="cls-5" d="M265.776,184.576l13.209-21.465H307.6c3.3,0,11.418-5.649,7.287-12.117,0,0-18.021-26.973-19.529-28.479s-6.2-2.9-10.33-.143C281.784,124.538,275,139.831,275,139.831s-7.706.145-10.057,0c-2.324-.131-3.024,7.848-.133,7.848h14.035l5.231-9.07,10.867,16.644H272.791l-17.335,29.323c-.983,1.784-.825,4.367,2.576,4.367s5.455-1.477,7.744-4.367"/><rect class="cls-6" x="255.414" y="143.402" width="24.938" height="6.919"/><polygon class="cls-5" points="258.182 143.775 255.489 145.666 240.965 124.93 243.665 123.027 258.182 143.775"/><path class="cls-7" d="M138.81,211.984c21.97,8.268,48.979,13.1,77.8,13.1,75.992,0,137.668-33.457,137.668-74.981,0-21.166-19.549-48.78-69.336-48.78-36.08,0-67.526,15.924-67.526,35.476,0,3.425,2.014,7.257,4.637,9.876,4.031,4.637,5.24,10.28,5.24,15.522,0,23.986-35.677,43.338-79.619,43.338-29.026,0-55.632-8.062-68.735-21.164C68.461,173.891,65.036,162,65.036,150.1c0-45.758,67.927-82.846,151.578-82.846,83.851,0,151.781,37.088,151.781,82.846s-67.93,82.844-151.781,82.844c-33.057,0-63.694-5.846-88.49-15.519Z"/><path class="cls-8" d="M137.81,205.2c21.97,8.267,48.979,13.1,77.805,13.1,75.991,0,137.667-33.458,137.667-74.981,0-21.166-19.549-48.78-69.336-48.78-36.08,0-67.526,15.924-67.526,35.476,0,3.425,2.014,7.257,4.637,9.876,4.031,4.636,5.24,10.28,5.24,15.522,0,23.986-35.677,43.337-79.619,43.337-29.026,0-55.632-8.063-68.735-21.163-10.482-10.484-13.907-22.375-13.907-34.268,0-45.758,67.927-82.846,151.579-82.846,83.85,0,151.78,37.088,151.78,82.846s-67.93,82.844-151.78,82.844c-33.058,0-63.7-5.846-88.491-15.521Z"/></g><text class="cls-9" transform="translate(130.403 248.249) rotate(16.137)">W</text><g class="cls-2"><polygon class="cls-10" points="149.79 255.079 152.891 255.976 165.489 234.403 162.907 233.656 152.251 252.293 152.978 230.784 150.181 229.976 139.394 248.373 140.251 227.101 137.547 226.319 136.77 251.312 139.811 252.191 150.499 233.997 149.79 255.079"/></g><text class="cls-9" transform="translate(161.471 256.822) rotate(9.754)">E</text><g class="cls-2"><polygon class="cls-10" points="179.2 258.564 167.184 256.499 168.81 247.038 179.975 248.957 180.375 246.623 169.212 244.704 170.47 237.388 182.485 239.453 182.892 237.088 168.101 234.544 163.992 258.45 178.783 260.993 179.2 258.564"/></g><text class="cls-11" transform="matrix(0.996, 0.089, -0.089, 0.996, 181.447, 260.186)">B</text><g class="cls-2"><path class="cls-10" d="M195.789,262.042a7.416,7.416,0,0,0,2.662-1.385,6.381,6.381,0,0,0,1.685-2.147,7.348,7.348,0,0,0,.709-2.539,6.47,6.47,0,0,0-.194-2.33,5.657,5.657,0,0,0-.953-1.933,6.006,6.006,0,0,0-1.606-1.444,6.9,6.9,0,0,0-2.188-.87l.006-.063a6.011,6.011,0,0,0,3.336-1.743,5.422,5.422,0,0,0,1.456-3.356,5.068,5.068,0,0,0-.258-2.143,4.772,4.772,0,0,0-1.186-1.841,6.816,6.816,0,0,0-2.08-1.358,9.494,9.494,0,0,0-2.942-.7l-8.063-.717L184.022,261.6l8.16.728A9.591,9.591,0,0,0,195.789,262.042ZM196.637,252a4.448,4.448,0,0,1,1.119,3.665,4.523,4.523,0,0,1-1.662,3.322,5.556,5.556,0,0,1-4.05.924l-5-.446.847-9.5,4.43.394A6.678,6.678,0,0,1,196.637,252Zm.12-10.366a3.126,3.126,0,0,1,.936,2.845,3.439,3.439,0,0,1-1.631,2.972,6.647,6.647,0,0,1-3.761.564l-4.207-.375.673-7.554,4.526.4A6.2,6.2,0,0,1,196.757,241.632Z"/></g><text class="cls-12" transform="translate(202.177 261.914) rotate(1.974)"> </text><text class="cls-13" transform="translate(210.052 262.41) rotate(-1.7)">접</text><g class="cls-2"><path class="cls-10" d="M218.6,263.437l-.107-3.594,11.653-.347.106,3.6Zm13.876-8.506-2.464.073.072,2.435-11.652.346-.068-2.29-2.464.073.3,10.116,16.58-.492Zm-2.721-7.608.184,6.174,2.493-.073-.426-14.32-2.492.074.175,5.914-4.667.137.066,2.233Zm-6.694-3.181a11.677,11.677,0,0,0,.863-3.637q-2.026.119-3.882.173l-3.681.109-4.436.132.065,2.144,2.637-.078q1.565-.047,3.13-.107t3.071-.164a9.534,9.534,0,0,1-1.333,2.97,16.171,16.171,0,0,1-2.369,2.812A20.508,20.508,0,0,1,214,250.939a19.944,19.944,0,0,1-3.63,1.834l1.7,1.719a21.9,21.9,0,0,0,3.9-2.1,21.226,21.226,0,0,0,3.863-3.292,20.2,20.2,0,0,0,2.9,2.466,22.774,22.774,0,0,0,3.233,1.907l1.483-1.872a16.99,16.99,0,0,1-1.634-.779q-.841-.454-1.669-1a18.869,18.869,0,0,1-1.586-1.156,10.783,10.783,0,0,1-1.329-1.267A16.218,16.218,0,0,0,223.064,244.142Z"/></g><text class="cls-14" transform="translate(237.404 261.541) rotate(-7.703)">근</text><g class="cls-2"><path class="cls-10" d="M259.322,259.857l-14.916,2.018-.89-6.581-2.472.334,1.182,8.736,17.387-2.351Zm-23.066-8.908.288,2.127,25.031-3.386-.287-2.127-4.866.659q-.023-1.052-.08-2.345c-.038-.862-.088-1.774-.147-2.731s-.136-1.947-.225-2.969-.192-2.042-.309-3.06l-17.128,2.317.291,2.155,14.6-1.975q.292,2.155.4,4.453t.138,4.488Z"/></g><text class="cls-15" transform="matrix(0.97, -0.244, 0.244, 0.97, 264.532, 257.805)">성</text><path class="cls-10" d="M283.861,253.021a3.1,3.1,0,0,1-.86,1.218,7.107,7.107,0,0,1-1.721,1.121,13.576,13.576,0,0,1-2.625.916,13.218,13.218,0,0,1-2.7.426,7.1,7.1,0,0,1-2.034-.175,3.1,3.1,0,0,1-1.334-.666,2.027,2.027,0,0,1-.627-1.009,2.071,2.071,0,0,1,.068-1.212,3.2,3.2,0,0,1,.856-1.233,7.042,7.042,0,0,1,1.7-1.145,12.471,12.471,0,0,1,2.579-.919,12.856,12.856,0,0,1,2.75-.424,7.129,7.129,0,0,1,2.053.2,3.218,3.218,0,0,1,1.338.682,2.081,2.081,0,0,1,.635,1.036A2.033,2.033,0,0,1,283.861,253.021Zm1.569-3.685a4.828,4.828,0,0,0-2-1.2,9.009,9.009,0,0,0-2.932-.383,18.791,18.791,0,0,0-7.4,1.863,9.051,9.051,0,0,0-2.388,1.723,4.887,4.887,0,0,0-1.2,1.992,4.074,4.074,0,0,0,1,3.965,4.879,4.879,0,0,0,2,1.186,8.99,8.99,0,0,0,2.919.385,16.367,16.367,0,0,0,3.787-.549,16.679,16.679,0,0,0,3.611-1.312,9.323,9.323,0,0,0,2.4-1.713,4.757,4.757,0,0,0,1.2-1.978,4,4,0,0,0,.034-2.117A4.047,4.047,0,0,0,285.43,249.336Zm-4.957-10.774,1.955,7.762,2.418-.609-3.881-15.41-2.418.608,1.381,5.484-5.2,1.31.546,2.166Zm-13.539-4.006a12.714,12.714,0,0,1,.244,7.564,14.864,14.864,0,0,1-4.151,6.369l2.062,1.185a17,17,0,0,0,3.014-3.765,13.982,13.982,0,0,0,1.666-4.441,15.75,15.75,0,0,0,3.492,2.649,15.921,15.921,0,0,0,4.237,1.625l1.057-2.091a15.254,15.254,0,0,1-8.5-4.918,17.283,17.283,0,0,0-.146-2.34,17.963,17.963,0,0,0-.5-2.46Z"/><path class="cls-16" d="M94.854,75.4a53.264,53.264,0,0,0-3.938-7.9l-8.3,4.966L81.1,69.927l11.435-6.842L93.618,64.9A56.8,56.8,0,0,1,98.126,73.8Zm-.071,3.823c2.1-1.358,4.188-2.8,6.069-4.256l1.544,2.2a98.479,98.479,0,0,1-12.8,8.878L87.739,83.6c1.23-.737,2.581-1.544,3.966-2.406l-3.939-6.583L90.9,72.735Zm11.463-11.559-2.992,1.79L109.626,80.1l-3.185,1.906L93.1,59.718l3.185-1.906,5.373,8.979L104.653,65Z"/><path class="cls-16" d="M124.246,51.317,110.02,56.785l-1.053-2.739,5.354-2.056-.87-2.264,3.491-1.342.87,2.263,5.38-2.067Zm-3.391,12.42c-3.463,1.331-6.628.464-7.65-2.2-1.013-2.631.756-5.4,4.22-6.728,3.491-1.341,6.63-.463,7.641,2.169,1.022,2.659-.72,5.412-4.211,6.754m-1.012-2.632c1.55-.595,2.392-1.613,1.917-2.852-.465-1.211-1.775-1.4-3.322-.806-1.576.6-2.393,1.613-1.927,2.824.475,1.238,1.758,1.438,3.332.834m-2.56,5.878L133.4,60.79l3.1,8.081L133.04,70.2l-2.035-5.291-12.649,4.861Zm16.595-14.5-3.2,1.23,2.337,6.081-3.464,1.331-5.838-15.187,3.465-1.332,2.4,6.238,3.2-1.23Z"/><path class="cls-16" d="M153.2,40.2c1.82,7.741.705,14.666-7.222,21.108L143.42,58.9c5.7-4.616,7.562-9.225,6.765-14.948l-8.4,1.977-.677-2.882Zm6.876-4.4,5.945,25.282-3.639.857-5.945-25.283Z"/><path class="cls-16" d="M185.827,45.363l.19,1.653,6.984-.8.766,6.7-14.081,1.607.167,1.456L194.605,54.3l.316,2.773-18.411,2.1-.775-6.779,14.108-1.611-.16-1.4-14.137,1.614-.314-2.746,7.1-.81-.189-1.653L172.389,46.9l-.333-2.914L195.3,41.33l.333,2.914Zm6.977-4.826c-4.5.03-7.874-1.287-9.763-3.455-1.352,2.538-4.372,4.586-8.76,5.569l-1.519-2.636c5.72-1.22,8.215-4.145,7.93-6.638l-.054-.477,3.8-.433.055.476c.285,2.493,3.376,4.78,9.224,4.68Z"/><path class="cls-16" d="M217,45.348a9.791,9.791,0,0,1-5.922-4.993,10.117,10.117,0,0,1-6.13,5.81l-1.91-2.915a8.648,8.648,0,0,0,6.026-8.037l-5.087.047-.028-2.989,13.912-.129.027,2.99-5.03.045a7.959,7.959,0,0,0,5.913,7.25Zm8.011,6.187c.03,3.158-3.328,5.022-8.807,5.073-5.509.051-8.9-1.751-8.928-4.909s3.327-5.023,8.835-5.073c5.48-.051,8.871,1.751,8.9,4.909m-3.711.034c-.013-1.466-1.791-2.155-5.162-2.124-3.4.031-5.165.753-5.151,2.22s1.79,2.154,5.19,2.123c3.373-.031,5.137-.752,5.123-2.219m-.248-14.747-.056-6.26,3.709-.034.142,15.453-3.709.034-.058-6.175-3.877.036-.03-3.018Z"/><path class="cls-16" d="M256.793,53.144l-.3,3-23.326-2.353.3-3,9.789.99.481-4.743-7.328-.74,1.365-13.5,3.664.37-.406,4.013,11.019,1.112.406-4.012,3.637.366-1.365,13.5-7.3-.737-.48,4.743ZM240.37,43.72l11.02,1.111.366-3.619L240.737,40.1Z"/><path class="cls-16" d="M287.723,52.828l-.625,2.835-22.865-5.032.623-2.838,9.607,2.117.346-1.571-6.752-1.487L270.444,36l17.4,3.831-.606,2.754-13.806-3.038-.291,1.323,13.23,2.912-.582,2.643-13.23-2.912-.3,1.377,14,3.082-.6,2.754-7.221-1.589-.346,1.568Zm-4.478,7.533c-.594,2.7-4.125,3.45-9.7,2.223C268,61.366,265.11,59.2,265.7,56.5c.6-2.726,4.127-3.451,9.671-2.231,5.573,1.228,8.469,3.367,7.87,6.094m-3.651-.8c.23-1.047-1.293-1.845-4.806-2.618-3.487-.767-5.2-.683-5.432.364s1.285,1.871,4.771,2.638c3.514.774,5.237.662,5.467-.384"/><path class="cls-16" d="M312.8,71.127l-1.015,2.783-16.8-6.135,2.873-7.866,3.486,1.273-1.857,5.085Zm-5.1-9.879a9.946,9.946,0,0,1-3.772-7.05,10.439,10.439,0,0,1-7.82,3.3l-.754-3.426a8.81,8.81,0,0,0,8.717-5.914l.871-2.386,3.539,1.293-.871,2.385a8.192,8.192,0,0,0,2.875,9.666Zm5.734,6.267-3.514-1.283,6.493-17.775,3.513,1.285Z"/><path class="cls-16" d="M342.475,81.644l-8.654-4.915-4,7.038L326.6,81.934l4-7.038-8.506-4.832,1.463-2.574,20.387,11.58Zm.254-6.082-15.645-8.886L332.77,56.67l3.2,1.821-1.463,2.573,9.266,5.264,1.463-2.576,3.178,1.806Zm-.391-6.71-9.263-5.263-1.325,2.33,9.264,5.264Z"/><polygon class="cls-3" points="143.723 171.226 131.418 171.226 129.674 130.811 103.602 171.226 91.278 171.226 91.171 104.608 106.559 104.608 105.585 146.62 132.038 104.608 143.09 104.608 144.237 146.62 168.674 104.608 184.062 104.608 143.723 171.226"/><path class="cls-3" d="M194.129,171.764l.227-11.824h-18.6l-6.522,11.824H151.4l40.16-66.794h17.6l2.824,66.794Zm1.137-47.112L181.553,148.96h13.424Z"/><rect class="cls-1" x="19.675" y="21.5" width="390.647" height="275.598"/></g><g id="레이어_4" data-name="레이어 4"><text class="cls-17" transform="matrix(0.693, 0.657, -0.688, 0.726, 34.27, 225.775)">웹</text><text class="cls-17" transform="translate(47.005 237.754) rotate(37.717) scale(0.955 1)">와</text><text class="cls-17" transform="translate(60.767 248.331) rotate(32.609) scale(0.955 1)">치</text><text class="cls-17" transform="translate(75.225 257.4) rotate(29.18) scale(0.955 1)">(</text><text class="cls-17" transform="translate(82.448 261.619) rotate(25.576) scale(0.955 1)">W</text><text class="cls-17" transform="translate(99.729 269.757) rotate(22.07) scale(0.955 1)">e</text><text class="cls-17" transform="translate(110.443 274.098) rotate(19.402) scale(0.955 1)">b</text><text class="cls-17" transform="translate(121.146 277.993) rotate(16.129) scale(0.955 1)">W</text><text class="cls-17" transform="translate(139.419 283.173) rotate(13.144) scale(0.955 1)">a</text><text class="cls-17" transform="matrix(0.936, 0.187, -0.196, 0.981, 150.227, 285.661)">t</text><text class="cls-17" transform="translate(157.514 287.142) rotate(9.476) scale(0.955 1)">c</text><text class="cls-17" transform="matrix(0.947, 0.12, -0.126, 0.992, 168.725, 289.013)">h</text><text class="cls-17" transform="matrix(0.95, 0.089, -0.093, 0.996, 180.632, 290.487)">)</text><text class="cls-17" transform="translate(188.533 291.21) rotate(4.217) scale(0.955 1)"> </text><text class="cls-17" transform="matrix(0.953, 0.045, -0.047, 0.999, 193.061, 291.59)">2</text><text class="cls-17" transform="translate(205.168 292.138) rotate(0.634) scale(0.955 1)">0</text><text class="cls-17" transform="matrix(0.954, -0.032, 0.033, 0.999, 218.606, 292.238)">2</text><text class="cls-17" transform="translate(230.504 291.849) rotate(-4.175) scale(0.955 1)">4</text><text class="cls-17" transform="translate(243.348 290.854) rotate(-5.897) scale(0.955 1)">.</text><text class="cls-17" transform="translate(248.613 290.371) rotate(-7.59) scale(0.955 1)">0</text><text class="cls-17" transform="translate(261.936 288.584) rotate(-10.142) scale(0.955 1)">4</text><text class="cls-17" transform="translate(274.637 286.252) rotate(-11.972) scale(0.955 1)">.</text><text class="cls-17" transform="matrix(0.93, -0.217, 0.227, 0.974, 278.616, 285.441)">1</text><text class="cls-17" transform="translate(287.875 283.295) rotate(-15.279) scale(0.955 1)">7</text><text class="cls-17" transform="translate(299.054 280.25) rotate(-17.873) scale(0.955 1)">~</text><text class="cls-17" transform="translate(311.209 276.318) rotate(-20.576) scale(0.955 1)">2</text><text class="cls-17" transform="translate(322.715 272.006) rotate(-23.53) scale(0.955 1)">0</text><text class="cls-17" transform="translate(335.123 266.573) rotate(-26.655) scale(0.955 1)">2</text><text class="cls-17" transform="translate(346.157 261.026) rotate(-29.871) scale(0.955 1)">5</text><text class="cls-17" transform="translate(356.69 254.897) rotate(-32.28) scale(0.955 1)">.</text><text class="cls-17" transform="matrix(0.783, -0.546, 0.572, 0.82, 361.327, 252.075)">0</text><text class="cls-17" transform="matrix(0.741, -0.601, 0.63, 0.777, 372.58, 244.2)">4</text><text class="cls-17" transform="translate(382.697 235.859) rotate(-42.177) scale(0.955 1)">.</text><text class="cls-17" transform="translate(385.867 233.065) rotate(-44.259) scale(0.955 1)">1</text><text class="cls-17" transform="matrix(0.632, -0.715, 0.749, 0.663, 392.943, 226.226)">6</text></g></g></svg>